:SAMPLES-PER-SECOND 30
:FULLY-SPECIFIED
:DEGREES
379
root  -2.537 19.3054 68.9352 58.0982 -4.60508 -6.50988
RightUpLeg  -75.3754 3.6953 12.7353
RightLeg  127.464 22.8424 -8.97374
RightFoot  -31.2833 0.0761194 -0.181435
RightToes  5.82077e-011 -3.18055e-015 -2.98177e-016
Spine  37.0319 -4.08114 14.0904
Spine1  -10.6254 -0.423445 -1.2309
HEad  -14.9419 12.5653 0.691239
LeftShoulder1  -3.88251e-019 9.70628e-020 -3.87848e-018
LeftArm  -7.45042 -10.526 -59.8045
LeftForeArm  5.8485 -18.1309 -0.875972
LeftHand  -11.3424 -11.5871 69.7983
RightShoulder  4.19551 10.0859 18.3822
RightArm  4.51155 14.697 74.0862
RightForeArm  24.1229 9.47809 -6.09346
RightHand  -12.8139 10.9916 -76.7103
LeftUpLeg  -52.0962 1.30943 -7.53082
LeftLeg  99.6149 -19.2119 22.8654
LeftFoot  -4.23288 0.569852 -7.48982
LeftToes  9.37148e-011 4.50685e-012 -4.11107e-011
380
root  -2.70567 19.1978 69.1312 57.7464 -3.734 -4.79809
RightUpLeg  -77.4654 3.92744 13.1969
RightLeg  126.061 24.0679 -10.8853
RightFoot  -26.1583 0.0339625 -0.514038
RightToes  5.82077e-011 -3.18055e-015 -2.98177e-016
Spine  35.987 -3.90408 12.8212
Spine1  -9.52742 -0.96067 0.134989
HEad  -15.5573 11.6312 0.913055
LeftShoulder1  -3.88251e-019 9.70628e-020 -3.87848e-018
LeftArm  -7.01828 -11.2401 -60.772
LeftForeArm  7.09736 -17.2538 -1.44379
LeftHand  -11.6058 -11.6806 70.7401
RightShoulder  4.49804 10.3534 19.6773
RightArm  5.02903 14.8215 72.2332
RightForeArm  23.9267 9.18293 -5.35821
RightHand  -12.8867 11.0129 -76.9569
LeftUpLeg  -51.3327 -0.0939784 -7.67056
LeftLeg  98.8436 -19.111 23.5587
LeftFoot  -3.79901 0.608926 -7.60473
LeftToes  9.37148e-011 4.50685e-012 -4.11107e-011
381
root  -2.87811 19.098 69.384 56.8532 -2.14449 -2.98931
RightUpLeg  -76.4417 3.16115 14.3205
RightLeg  123.942 26.033 -14.1217
RightFoot  -22.4051 -0.0545283 -1.54555
RightToes  5.82077e-011 -3.18055e-015 -2.98177e-016
Spine  35.3845 -4.06312 12.0471
Spine1  -8.48375 -1.49487 1.6329
HEad  -16.1479 10.3785 0.28255
LeftShoulder1  -3.88251e-019 9.70628e-020 -3.87848e-018
LeftArm  -6.81937 -11.8167 -62.1962
LeftForeArm  8.45709 -15.8408 -2.03194
LeftHand  -11.7225 -11.6279 71.4579
RightShoulder  4.71885 10.5129 20.6527
RightArm  5.06358 14.4777 70.4014
RightForeArm  23.6659 9.03239 -4.94305
RightHand  -12.9501 11.0233 -77.1983
LeftUpLeg  -49.8217 -1.73963 -7.2198
LeftLeg  98.1051 -18.9656 24.1119
LeftFoot  -3.87829 0.633275 -7.97464
LeftToes  9.37148e-011 4.50685e-012 -4.11107e-011
382
root  -3.12296 18.9807 69.6473 57.0725 -0.683449 -0.944593
RightUpLeg  -74.9627 1.91034 15.2552
RightLeg  122.275 27.3883 -16.626
RightFoot  -22.5827 -0.0627319 -1.67959
RightToes  5.82077e-011 -3.18055e-015 -2.98177e-016
Spine  34.1042 -4.19508 10.9857
Spine1  -7.88987 -2.18181 2.89001
HEad  -16.521 9.41796 -0.161559
LeftShoulder1  -3.88251e-019 9.70628e-020 -3.87848e-018
LeftArm  -6.29756 -12.7297 -63.3552
LeftForeArm  9.66154 -13.9259 -2.85591
LeftHand  -11.7933 -11.5405 72.0753
RightShoulder  4.84808 10.4577 21.4606
RightArm  4.13398 13.096 69.3505
RightForeArm  23.6842 9.10312 -5.25972
RightHand  -12.9213 10.9067 -77.471
LeftUpLeg  -49.4146 -3.41277 -6.91258
LeftLeg  97.3211 -18.7593 24.5692
LeftFoot  -4.19657 0.601663 -7.86439
LeftToes  9.37148e-011 4.50685e-012 -4.11107e-011
383
root  -3.40402 18.9304 69.8998 58.4148 0.0773704 0.391756
RightUpLeg  -74.5893 1.37977 15.9194
RightLeg  120.978 27.6665 -17.6825
RightFoot  -24.3824 -0.0163499 -0.984066
RightToes  5.82077e-011 -3.18055e-015 -2.98177e-016
Spine  32.514 -3.95358 9.93549
Spine1  -7.72315 -2.49679 3.17377
HEad  -16.9315 8.58683 0.14211
LeftShoulder1  -3.88251e-019 9.70628e-020 -3.87848e-018
LeftArm  -5.26766 -13.729 -64.1938
LeftForeArm  10.7369 -12.3564 -3.70182
LeftHand  -11.9768 -11.5343 72.9446
RightShoulder  4.94124 10.366 22.1326
RightArm  3.06945 11.305 68.4195
RightForeArm  23.2562 9.57677 -5.72693
RightHand  -12.891 10.7388 -77.9172
LeftUpLeg  -50.2042 -4.14195 -6.61562
LeftLeg  96.3747 -18.4389 24.9226
LeftFoot  -4.42989 0.536877 -7.23374
LeftToes  9.37148e-011 4.50685e-012 -4.11107e-011
384
root  -3.60492 18.995 70.1835 59.2408 0.422392 0.11186
RightUpLeg  -74.1997 1.64381 16.8426
RightLeg  119.699 27.2156 -17.8068
RightFoot  -24.8924 0.0291735 -0.512394
RightToes  5.82077e-011 -3.18055e-015 -2.98177e-016
Spine  31.8274 -3.66944 10.3787
Spine1  -7.36904 -1.99121 1.34635
HEad  -17.4808 7.44514 0.690775
LeftShoulder1  -3.88251e-019 9.70628e-020 -3.87848e-018
LeftArm  -4.18268 -14.8177 -65.0902
LeftForeArm  11.9035 -11.4179 -4.26813
LeftHand  -12.1963 -11.5934 73.7525
RightShoulder  5.04787 10.3751 22.7077
RightArm  2.56508 9.86221 66.9018
RightForeArm  21.9775 10.5978 -6.01472
RightHand  -12.9872 10.6795 -78.544
LeftUpLeg  -50.2852 -3.38061 -5.88772
LeftLeg  95.1384 -18.0363 25.5092
LeftFoot  -4.83089 0.493253 -7.00465
LeftToes  9.37148e-011 4.50685e-012 -4.11107e-011
385
root  -3.7258 19.0457 70.505 58.9572 0.586143 -1.00504
RightUpLeg  -72.8531 1.64294 17.9472
RightLeg  118.878 26.5959 -17.4235
RightFoot  -24.5246 0.0388398 -0.421592
RightToes  5.82077e-011 -3.18055e-015 -2.98177e-016
Spine  31.8849 -3.62731 11.9004
Spine1  -6.09672 -1.02086 -1.95311
HEad  -18.1962 6.20614 0.752679
LeftShoulder1  -3.88251e-019 9.70628e-020 -3.87848e-018
LeftArm  -3.58512 -16.3635 -66.031
LeftForeArm  13.2003 -10.6525 -4.53206
LeftHand  -12.3032 -11.6392 74.0828
RightShoulder  5.19891 10.4482 23.4118
RightArm  2.56077 8.84506 65.1211
RightForeArm  20.3138 12.2406 -6.52465
RightHand  -13.1346 10.7162 -79.0571
LeftUpLeg  -48.8617 -1.84985 -5.09126
LeftLeg  93.8047 -17.6391 26.3994
LeftFoot  -5.67204 0.473485 -7.53253
LeftToes  9.37148e-011 4.50685e-012 -4.11107e-011
386
root  -3.91189 18.9309 70.7672 59.2174 0.128047 -1.22234
RightUpLeg  -72.4633 1.18235 18.2908
RightLeg  119.12 26.2668 -16.8273
RightFoot  -24.4202 0.048246 -0.324246
RightToes  5.82077e-011 -3.18055e-015 -2.98177e-016
Spine  30.7848 -3.19987 11.7524
Spine1  -3.77272 -0.283546 -3.875
HEad  -19.255 5.34948 0.126033
LeftShoulder1  -3.88251e-019 9.70628e-020 -3.87848e-018
LeftArm  -3.31119 -18.1091 -66.6052
LeftForeArm  14.3088 -10.1388 -4.71413
LeftHand  -12.3442 -11.6552 74.2137
RightShoulder  5.39214 10.5079 24.3617
RightArm  2.9778 8.03838 63.6225
RightForeArm  18.6304 14.3899 -7.54746
RightHand  -13.1706 10.7294 -79.1659
LeftUpLeg  -48.0069 -0.752195 -5.26405
LeftLeg  92.9132 -17.3504 26.9868
LeftFoot  -6.59326 0.428764 -7.83859
LeftToes  9.37148e-011 4.50685e-012 -4.11107e-011
387
root  -4.19548 18.7843 70.9442 59.9381 -0.391072 -0.183983
RightUpLeg  -73.059 0.55874 18.0104
RightLeg  119.797 26.2125 -16.3855
RightFoot  -24.0666 0.0414083 -0.410599
RightToes  5.82077e-011 -3.18055e-015 -2.98177e-016
Spine  28.98 -2.457 9.82842
Spine1  -1.08575 -0.122956 -3.38523
HEad  -20.6294 4.83635 -0.789269
LeftShoulder1  -3.88251e-019 9.70628e-020 -3.87848e-018
LeftArm  -2.72966 -19.431 -66.6352
LeftForeArm  14.8215 -10.446 -4.9641
LeftHand  -12.4541 -11.6994 74.5589
RightShoulder  5.56405 10.5393 25.2376
RightArm  3.88959 7.42053 62.4246
RightForeArm  16.7118 16.6703 -8.85343
RightHand  -13.122 10.7269 -78.9648
LeftUpLeg  -48.1793 -0.712766 -5.99123
LeftLeg  92.6092 -17.1929 26.9397
LeftFoot  -7.02586 0.346841 -6.90087
LeftToes  9.37148e-011 4.50685e-012 -4.11107e-011
388
root  -4.463 18.7987 71.1372 59.7399 -0.0202456 1.12534
RightUpLeg  -72.8088 -0.103121 17.8175
RightLeg  120.115 25.8855 -15.7647
RightFoot  -22.9001 0.04389 -0.329794
RightToes  5.82077e-011 -3.18055e-015 -2.98177e-016
Spine  28.3035 -2.29615 8.71588
Spine1  1.26395 -0.326709 -2.6025
HEad  -21.8068 4.36986 -1.30794
LeftShoulder1  -3.88251e-019 9.70628e-020 -3.87848e-018
LeftArm  -1.81943 -20.4555 -66.4409
LeftForeArm  14.8733 -11.2469 -5.25848
LeftHand  -12.6102 -11.7892 74.9545
RightShoulder  5.65229 10.5423 25.7085
RightArm  4.92299 7.05375 61.4507
RightForeArm  14.5977 18.5992 -10.0892
RightHand  -13.1283 10.78 -78.8073
LeftUpLeg  -48.1247 -1.44973 -6.04102
LeftLeg  92.4825 -17.1265 26.9163
LeftFoot  -6.66128 0.294409 -5.48648
LeftToes  9.37148e-011 4.50685e-012 -4.11107e-011
389
root  -4.65546 18.9746 71.3948 58.2556 1.35427 2.14095
RightUpLeg  -71.0137 -1.07516 17.836
RightLeg  120.179 24.9552 -14.4367
RightFoot  -21.8825 0.18454 1.47055
RightToes  5.82077e-011 -3.18055e-015 -2.98177e-016
Spine  29.2397 -3.13643 9.7378
Spine1  3.02608 -0.646277 -3.23612
HEad  -22.3343 3.98095 -1.05741
LeftShoulder1  -3.88251e-019 9.70628e-020 -3.87848e-018
LeftArm  -1.00269 -21.9276 -66.364
LeftForeArm  14.9346 -11.3245 -5.58637
LeftHand  -12.6661 -11.819 75.1021
RightShoulder  5.65917 10.4975 25.8286
RightArm  5.04339 6.81968 60.958
RightForeArm  13.2079 19.9451 -11.0561
RightHand  -13.1693 10.8169 -78.8561
LeftUpLeg  -47.5079 -2.70221 -5.07338
LeftLeg  92.3735 -17.1422 27.2287
LeftFoot  -4.87285 0.316521 -4.75294
LeftToes  9.37148e-011 4.50685e-012 -4.11107e-011
390
root  -4.8529 19.111 71.5776 56.8727 2.70341 3.24846
RightUpLeg  -69.3029 -2.18603 17.727
RightLeg  120.415 24.0157 -12.9999
RightFoot  -20.7075 0.149103 1.28403
RightToes  5.82077e-011 -3.18055e-015 -2.98177e-016
Spine  30.4205 -4.20419 10.9809
Spine1  4.10399 -1.0998 -4.16215
HEad  -22.3635 3.84991 -0.370246
LeftShoulder1  -3.88251e-019 9.70628e-020 -3.87848e-018
LeftArm  -0.26972 -23.971 -66.4627
LeftForeArm  15.1568 -10.1705 -5.99313
LeftHand  -12.5604 -11.6725 75.1223
RightShoulder  5.62873 10.4188 25.8104
RightArm  3.25255 6.44256 61.1773
RightForeArm  13.624 20.8567 -11.7766
RightHand  -13.112 10.7256 -78.9263
LeftUpLeg  -47.8589 -4.31942 -4.05435
LeftLeg  93.2075 -17.3243 26.2611
LeftFoot  -0.712645 0.0808052 -0.820651
LeftToes  9.37148e-011 4.50685e-012 -4.11107e-011
391
root  -5.13664 19.1608 71.6238 56.0774 3.28748 4.53859
RightUpLeg  -68.6195 -2.9062 17.4245
RightLeg  120.927 23.4112 -11.9245
RightFoot  -19.7671 0.190112 2.21185
RightToes  5.82077e-011 -3.18055e-015 -2.98177e-016
Spine  31.5663 -4.65199 10.8445
Spine1  4.40619 -1.57102 -4.04881
HEad  -22.3782 3.93775 0.205954
LeftShoulder1  -3.88251e-019 9.70628e-020 -3.87848e-018
LeftArm  0.597083 -25.9233 -66.6053
LeftForeArm  15.2827 -8.63811 -6.37934
LeftHand  -12.3731 -11.4039 75.1903
RightShoulder  5.58093 10.3571 25.6658
RightArm  -0.470874 5.78286 61.9673
RightForeArm  15.9353 21.6701 -12.3949
RightHand  -12.9979 10.6148 -78.8177
LeftUpLeg  -49.5802 -5.93356 -3.39109
LeftLeg  95.9441 -17.7489 23.0804
LeftFoot  2.33402 -0.246543 1.94586
LeftToes  9.37148e-011 4.50685e-012 -4.11107e-011
392
root  -5.44222 19.1671 71.5862 55.2598 3.46326 5.99984
RightUpLeg  -67.9565 -3.5774 17.0387
RightLeg  121.393 23.2652 -11.534
RightFoot  -19.7554 0.221271 2.76819
RightToes  5.82077e-011 -3.18055e-015 -2.98177e-016
Spine  32.6959 -4.90845 10.1601
Spine1  4.68309 -2.07758 -3.65531
HEad  -22.6465 4.16535 0.664906
LeftShoulder1  -3.88251e-019 9.70628e-020 -3.87848e-018
LeftArm  1.4552 -27.3715 -66.5883
LeftForeArm  15.0994 -7.77902 -6.54571
LeftHand  -12.2424 -11.2262 75.2051
RightShoulder  5.49905 10.325 25.2788
RightArm  -4.49148 5.10865 62.975
RightForeArm  18.6082 22.5331 -12.9346
RightHand  -13.0329 10.6983 -78.6783
LeftUpLeg  -51.8504 -7.29936 -3.14011
LeftLeg  100.433 -18.4821 19.6516
LeftFoot  0.631451 -0.169498 1.35742
LeftToes  9.37148e-011 4.50685e-012 -4.11107e-011
393
root  -5.76271 19.2233 71.6074 54.2538 3.03816 7.53692
RightUpLeg  -66.6782 -4.10868 16.0559
RightLeg  121.44 23.1045 -11.2911
RightFoot  -20.2832 0.269051 3.30845
RightToes  5.82077e-011 -3.18055e-015 -2.98177e-016
Spine  33.7621 -5.0109 8.68121
Spine1  5.51101 -2.40803 -3.88744
HEad  -23.0438 4.62279 1.30892
LeftShoulder1  -3.88251e-019 9.70628e-020 -3.87848e-018
LeftArm  2.09306 -28.6486 -66.2657
LeftForeArm  14.8654 -7.60058 -6.46252
LeftHand  -12.2564 -11.2807 75.0824
RightShoulder  5.36213 10.2784 24.6137
RightArm  -6.61696 4.94981 63.9554
RightForeArm  19.6277 23.1198 -13.2535
RightHand  -13.2729 10.9494 -78.8425
LeftUpLeg  -54.1131 -7.31621 -3.68723
LeftLeg  105.197 -19.4755 17.8398
LeftFoot  -5.66174 -0.0252575 0.221575
LeftToes  9.37148e-011 4.50685e-012 -4.11107e-011
